<?xml version="1.0" standalone="no"?>
<!DOCTYPE svg PUBLIC "-//W3C//DTD SVG 20010904//EN"
 "http://www.w3.org/TR/2001/REC-SVG-20010904/DTD/svg10.dtd">
<svg version="1.0" xmlns="http://www.w3.org/2000/svg"
 width="414.000000pt" height="414.000000pt" viewBox="0 0 414.000000 414.000000"
 preserveAspectRatio="xMidYMid meet">
<metadata>
Created by potrace 1.11, written by Peter Selinger 2001-2013
</metadata>
<g transform="translate(0.000000,414.000000) scale(0.100000,-0.100000)"
fill="#000000" stroke="none">
<path d="M1740 3289 c-145 -15 -280 -49 -378 -94 -29 -14 -55 -25 -58 -25 -18
0 -188 -122 -242 -174 -117 -111 -183 -224 -220 -376 -30 -121 -36 -191 -34
-402 0 -104 -2 -188 -7 -188 -4 0 -37 9 -72 21 -159 52 -271 131 -319 225 -33
66 -34 169 -2 231 28 53 28 55 -5 49 -16 -2 -33 -5 -40 -5 -21 -2 -74 -53 -93
-92 -42 -82 -28 -182 35 -257 72 -83 232 -164 421 -213 l91 -23 -3 -70 c-7
-177 -36 -346 -85 -498 -49 -151 -113 -238 -207 -281 -40 -19 -64 -22 -162
-21 -95 0 -123 4 -160 21 -88 41 -130 116 -126 224 2 70 16 99 55 122 40 23
108 29 135 12 48 -31 61 -113 26 -158 -11 -14 -20 -28 -20 -31 0 -10 40 -7 60
4 32 17 71 95 77 154 5 50 3 59 -23 93 -37 50 -45 57 -73 72 -83 45 -194 -29
-266 -176 -39 -79 -47 -136 -33 -216 18 -99 100 -213 185 -255 116 -59 289
-15 413 106 160 157 281 434 366 840 4 20 8 22 42 16 20 -4 45 -8 56 -10 51
-9 261 -17 424 -17 180 1 182 1 183 -20 0 -12 2 -38 4 -57 1 -19 6 -80 9 -135
4 -55 9 -109 11 -120 2 -11 7 -45 10 -75 10 -101 16 -145 25 -195 6 -27 13
-70 16 -95 11 -83 12 -88 18 -117 4 -15 9 -39 12 -53 3 -14 6 -29 8 -35 1 -5
6 -31 10 -56 4 -25 11 -51 15 -58 14 -23 285 28 394 74 30 12 37 20 32 33 -3
9 -9 30 -12 45 -4 21 -10 26 -22 21 -28 -11 -176 -61 -184 -62 -4 0 -20 -3
-35 -7 -57 -12 -102 -13 -103 -1 0 6 -2 18 -4 26 -35 160 -55 413 -58 763 l-2
147 35 2 c19 0 42 1 50 2 12 1 15 14 14 56 -3 110 2 101 -45 85 -23 -8 -44
-15 -47 -15 -5 0 5 246 12 290 2 14 8 61 12 105 4 44 8 87 9 95 1 8 5 44 10
80 4 36 8 67 10 70 2 3 6 34 10 70 4 36 9 68 12 72 2 4 6 29 9 55 3 27 10 64
14 83 8 32 23 113 37 200 3 19 11 53 18 77 13 41 12 43 -8 44 -78 4 -181 3
-237 -2z m-10 -94 c0 -8 -7 -59 -15 -113 -8 -53 -17 -128 -20 -167 -4 -38 -8
-83 -11 -100 -11 -87 -18 -299 -17 -532 0 -147 -3 -264 -8 -264 -5 -1 -12 -2
-16 -3 -5 -1 -39 -6 -78 -11 -38 -4 -81 -10 -95 -12 -50 -7 -376 -10 -425 -4
-27 4 -49 11 -48 16 0 6 4 49 8 97 3 49 8 103 10 120 2 18 7 56 10 83 13 106
17 133 36 231 27 140 62 253 110 352 76 158 238 283 397 308 20 3 39 8 41 10
2 2 31 4 63 4 45 0 58 -3 58 -15z"/>
<path d="M3467 3224 c-1 -1 -27 -4 -57 -7 -161 -16 -311 -87 -414 -197 -131
-140 -154 -366 -52 -523 92 -142 173 -202 561 -412 275 -150 387 -240 454
-364 42 -79 51 -171 28 -282 -41 -196 -125 -325 -278 -425 -120 -78 -243 -111
-378 -101 -111 8 -180 37 -250 105 -96 94 -134 189 -134 332 0 157 54 319 133
399 127 128 336 73 397 -105 52 -154 -76 -354 -196 -304 -31 12 -53 52 -47 84
3 24 42 56 67 56 23 0 25 23 3 41 -19 15 -87 16 -126 1 -88 -35 -80 -180 12
-227 58 -30 191 -10 269 40 191 122 212 353 43 474 -81 57 -227 82 -332 57
-164 -39 -340 -190 -382 -329 -21 -69 -16 -241 10 -311 67 -184 216 -325 391
-371 84 -22 248 -13 346 19 187 60 377 206 489 376 79 120 110 228 104 360 -4
82 -8 97 -48 177 -68 133 -175 233 -463 434 -334 232 -446 353 -474 514 -27
156 65 319 226 398 59 29 74 32 156 32 107 0 162 -23 226 -93 71 -77 91 -164
63 -283 -28 -118 -79 -179 -151 -179 -92 0 -140 80 -102 172 14 35 39 42 83
24 34 -14 36 -14 33 6 -5 31 -45 68 -76 70 -14 0 -37 2 -51 3 -80 4 -161 -97
-145 -181 20 -111 219 -183 348 -126 114 51 206 222 192 360 -12 122 -130 229
-290 266 -60 13 -181 27 -188 20z"/>
<path d="M2452 2441 c-11 -6 -13 -44 -10 -175 l3 -168 -93 7 c-52 4 -101 8
-110 9 -9 2 -46 7 -82 10 l-65 7 0 -35 c0 -20 2 -37 5 -37 17 -5 82 -7 207 -8
l142 -1 -5 -189 -6 -188 26 0 c25 0 26 2 27 56 1 31 2 88 4 126 1 39 3 98 4
133 l1 62 158 -1 c191 -2 181 -3 177 19 -2 9 -4 25 -4 36 -1 16 -7 18 -58 12
-32 -4 -107 -9 -166 -12 l-109 -6 2 163 c1 90 1 170 1 177 -1 14 -29 16 -49 3z"/>
</g>
</svg>
